# Blender v2.79 (sub 0) OBJ File: 'cartman.blend'
# www.blender.org
mtllib cartmanjambe.mtl
o Cylinder.001
v 1.758213 -0.028375 -2.959276
v 1.758213 1.597609 -2.959276
v 2.424348 -0.028375 -2.734014
v 2.424348 1.597609 -2.734014
v 2.989071 -0.028375 -2.092524
v 2.989071 1.597609 -2.092524
v 3.366406 -0.028375 -1.132466
v 3.366406 1.597609 -1.132466
v 3.498909 -0.028375 0.000000
v 3.498909 1.597609 0.000000
v 3.366406 -0.028375 1.132466
v 3.366406 1.597609 1.132466
v 2.989071 -0.028375 2.092524
v 2.989071 1.597609 2.092524
v 2.424348 -0.028375 2.734014
v 2.424348 1.597609 2.734014
v 1.758213 -0.028375 2.959276
v 1.758213 1.597609 2.959276
v 1.092078 -0.028375 2.734015
v 1.092078 1.597609 2.734015
v 0.527355 -0.028375 2.092525
v 0.527355 1.597609 2.092525
v 0.150019 -0.028375 1.132466
v 0.150019 1.597609 1.132466
v 0.017517 -0.028375 -0.000000
v 0.017517 1.597609 -0.000000
v 0.150020 -0.028375 -1.132466
v 0.150020 1.597609 -1.132466
v 0.527355 -0.028375 -2.092525
v 0.527355 1.597609 -2.092525
v 1.092078 -0.028375 -2.734015
v 1.092078 1.597609 -2.734015
v 1.758213 0.287906 -2.959276
v 2.424348 0.287906 -2.734014
v 2.989071 0.287906 -2.092524
v 3.366406 0.287906 -1.132466
v 3.498909 0.287906 0.000000
v 3.366406 0.287906 1.132466
v 2.989071 0.287906 2.092524
v 2.424348 0.287906 2.734014
v 1.758213 0.287906 2.959276
v 1.092078 0.287906 2.734015
v 0.527355 0.287906 2.092525
v 0.150019 0.287906 1.132466
v 0.017517 0.287906 -0.000000
v 0.150020 0.287906 -1.132466
v 0.527355 0.287906 -2.092525
v 1.092078 0.287906 -2.734015
v 3.366406 0.287906 1.452887
v 3.366406 -0.028375 1.452887
v 2.989071 -0.028375 2.412945
v 2.989071 0.287906 2.412945
v 2.424348 -0.028375 3.054435
v 2.424348 0.287906 3.054435
v 1.758213 -0.028375 3.279696
v 1.758213 0.287906 3.279696
v 1.092078 -0.028375 3.054435
v 1.092078 0.287906 3.054435
v 0.527355 -0.028375 2.412946
v 0.527355 0.287906 2.412946
v 0.150019 -0.028375 1.452887
v 0.150019 0.287906 1.452887
v 1.758213 -0.028375 -3.069711
v 2.424348 -0.028375 -2.844449
v 2.424348 0.287906 -2.844449
v 2.989071 -0.028375 -2.202959
v 2.989071 0.287906 -2.202959
v 3.366406 -0.028375 -1.242900
v 3.366406 0.287906 -1.242900
v 0.150020 0.287906 -1.242901
v 0.150020 -0.028375 -1.242901
v 0.527355 -0.028375 -2.202959
v 0.527355 0.287906 -2.202959
v 1.092078 -0.028375 -2.844450
v 1.092078 0.287906 -2.844450
v 1.758213 0.287906 -3.069711
vn 0.0000 0.7868 -0.6172
vn 0.0000 0.6416 -0.7670
vn 0.4197 0.6533 -0.6301
vn 0.3535 0.7702 -0.5309
vn 0.6334 0.6702 -0.3868
vn 0.5663 0.7481 -0.3458
vn 0.7119 0.6793 -0.1784
vn 0.9867 0.0600 -0.1507
vn 0.7315 0.6818 0.0000
vn 1.0000 0.0000 0.0000
vn 0.7119 0.6793 0.1784
vn 0.9867 0.0600 0.1507
vn 0.6334 0.6702 0.3868
vn 0.5663 0.7481 0.3458
vn 0.4197 0.6533 0.6301
vn 0.3535 0.7702 0.5309
vn 0.0000 0.6416 0.7670
vn 0.0000 0.7868 0.6172
vn -0.4197 0.6533 0.6301
vn -0.3535 0.7702 0.5309
vn -0.6334 0.6702 0.3868
vn -0.5663 0.7481 0.3458
vn -0.7119 0.6793 0.1784
vn -0.9867 0.0600 0.1507
vn -0.7315 0.6818 0.0000
vn -1.0000 0.0000 0.0000
vn -0.7119 0.6793 -0.1784
vn -0.9867 0.0600 -0.1507
vn -0.6334 0.6702 -0.3868
vn -0.5663 0.7481 -0.3458
vn -0.4197 0.6533 -0.6301
vn -0.3535 0.7702 -0.5309
vn 0.0000 -1.0000 0.0000
vn 0.6923 -0.7204 -0.0403
vn 0.7315 -0.6818 0.0000
vn 0.6923 -0.7204 0.0403
vn -0.6923 -0.7204 0.0403
vn -0.7315 -0.6818 0.0000
vn -0.6923 -0.7204 -0.0403
vn 0.6334 -0.6702 -0.3868
vn 0.7316 -0.6675 -0.1386
vn -0.7316 0.6675 -0.1386
vn -0.6334 -0.6702 -0.3868
vn -0.4197 -0.6533 -0.6301
vn 0.4197 -0.6533 0.6301
vn 0.0000 -0.6416 0.7670
vn -0.4197 -0.6533 0.6301
vn -0.6334 -0.6702 0.3868
vn 0.6334 -0.6702 0.3868
vn -0.7316 0.6675 0.1386
vn -0.7316 -0.6675 0.1386
vn 0.7316 -0.6675 0.1386
vn 0.7316 0.6675 0.1386
vn 0.0000 -0.6416 -0.7670
vn -0.7316 -0.6675 -0.1386
vn 0.7316 0.6675 -0.1386
vn 0.4197 -0.6533 -0.6301
usemtl pant
s 1
f 33//1 2//2 4//3 34//4
f 34//4 4//3 6//5 35//6
f 35//6 6//5 8//7 36//8
f 36//8 8//7 10//9 37//10
f 37//10 10//9 12//11 38//12
f 38//12 12//11 14//13 39//14
f 39//14 14//13 16//15 40//16
f 40//16 16//15 18//17 41//18
f 41//18 18//17 20//19 42//20
f 42//20 20//19 22//21 43//22
f 43//22 22//21 24//23 44//24
f 44//24 24//23 26//25 45//26
f 45//26 26//25 28//27 46//28
f 46//28 28//27 30//29 47//30
f 4//3 2//2 32//31 30//29 28//27 26//25 24//23 22//21 20//19 18//17 16//15 14//13 12//11 10//9 8//7 6//5
f 47//30 30//29 32//31 48//32
f 48//32 32//31 2//2 33//1
usemtl shoes
f 1//33 3//33 5//33 7//34 9//35 11//36 13//33 15//33 17//33 19//33 21//33 23//37 25//38 27//39 29//33 31//33
f 7//34 5//33 66//40 68//41
f 46//28 47//30 73//29 70//42
f 31//33 29//33 72//43 74//44
f 25//38 45//26 46//28 27//39
f 23//37 44//24 45//26 25//38
f 17//33 15//33 53//45 55//46
f 39//14 40//16 54//15 52//13
f 21//33 19//33 57//47 59//48
f 40//16 41//18 56//17 54//15
f 41//18 42//20 58//19 56//17
f 15//33 13//33 51//49 53//45
f 9//35 37//10 38//12 11//36
f 7//34 36//8 37//10 9//35
f 47//30 48//32 75//31 73//29
f 33//1 34//4 65//3 76//2
f 48//32 33//1 76//2 75//31
f 59//48 60//21 62//50 61//51
f 57//47 58//19 60//21 59//48
f 55//46 56//17 58//19 57//47
f 53//45 54//15 56//17 55//46
f 51//49 52//13 54//15 53//45
f 50//52 49//53 52//13 51//49
f 38//12 39//14 52//13 49//53
f 11//36 38//12 49//53 50//52
f 13//33 11//36 50//52 51//49
f 23//37 21//33 59//48 61//51
f 43//22 44//24 62//50 60//21
f 19//33 17//33 55//46 57//47
f 42//20 43//22 60//21 58//19
f 44//24 23//37 61//51 62//50
f 74//44 75//31 76//2 63//54
f 72//43 73//29 75//31 74//44
f 71//55 70//42 73//29 72//43
f 66//40 67//5 69//56 68//41
f 64//57 65//3 67//5 66//40
f 63//54 76//2 65//3 64//57
f 3//33 1//33 63//54 64//57
f 1//33 31//33 74//44 63//54
f 36//8 7//34 68//41 69//56
f 27//39 46//28 70//42 71//55
f 29//33 27//39 71//55 72//43
f 35//6 36//8 69//56 67//5
f 5//33 3//33 64//57 66//40
f 34//4 35//6 67//5 65//3
